<?xml version="1.0" encoding="UTF-8" standalone="no"?>
<!-- Generator: Adobe Illustrator 19.0.0, SVG Export Plug-In . SVG Version: 6.00 Build 0)  -->

<svg
   xmlns:dc="http://purl.org/dc/elements/1.1/"
   xmlns:cc="http://creativecommons.org/ns#"
   xmlns:rdf="http://www.w3.org/1999/02/22-rdf-syntax-ns#"
   xmlns:svg="http://www.w3.org/2000/svg"
   xmlns="http://www.w3.org/2000/svg"
   xmlns:sodipodi="http://sodipodi.sourceforge.net/DTD/sodipodi-0.dtd"
   xmlns:inkscape="http://www.inkscape.org/namespaces/inkscape"
   version="1.1"
   id="Capa_1"
   x="0px"
   y="0px"
   viewBox="0 0 371.04 371.04"
   style="enable-background:new 0 0 371.04 371.04;"
   xml:space="preserve"
   sodipodi:docname="star-white.svg"
   inkscape:version="0.92.3 (2405546, 2018-03-11)"><metadata
   id="metadata1038"><rdf:RDF><cc:Work
       rdf:about=""><dc:format>image/svg+xml</dc:format><dc:type
         rdf:resource="http://purl.org/dc/dcmitype/StillImage" /><dc:title></dc:title></cc:Work></rdf:RDF></metadata><defs
   id="defs1036" /><sodipodi:namedview
   pagecolor="#ffffff"
   bordercolor="#666666"
   borderopacity="1"
   objecttolerance="10"
   gridtolerance="10"
   guidetolerance="10"
   inkscape:pageopacity="0"
   inkscape:pageshadow="2"
   inkscape:window-width="1920"
   inkscape:window-height="960"
   id="namedview1034"
   showgrid="false"
   inkscape:zoom="0.63605001"
   inkscape:cx="2.3583051"
   inkscape:cy="185.52"
   inkscape:window-x="0"
   inkscape:window-y="27"
   inkscape:window-maximized="1"
   inkscape:current-layer="Capa_1" />
<g
   id="g995"
   style="fill:#ffffff;fill-opacity:1;stroke:#ffffff;stroke-opacity:1;stroke-width:10;stroke-miterlimit:4;stroke-dasharray:none">
	<g
   id="g993"
   style="fill:#ffffff;fill-opacity:1;stroke:#ffffff;stroke-opacity:1;stroke-width:10;stroke-miterlimit:4;stroke-dasharray:none">
		<path
   d="M185.52,0C83.06,0,0,83.06,0,185.52s83.06,185.52,185.52,185.52s185.52-83.06,185.52-185.52    C370.952,83.097,287.943,0.088,185.52,0z M185.52,355.04C91.897,355.04,16,279.143,16,185.52C16,91.897,91.897,16,185.52,16    c93.623,0,169.52,75.897,169.52,169.52C354.952,279.107,279.107,354.952,185.52,355.04z"
   id="path991"
   style="fill:#ffffff;fill-opacity:1;stroke:#ffffff;stroke-opacity:1;stroke-width:10;stroke-miterlimit:4;stroke-dasharray:none" />
	</g>
</g>
<g
   id="g1001"
   style="fill:#ffffff;fill-opacity:1;stroke:#ffffff;stroke-opacity:1;stroke-width:10;stroke-miterlimit:4;stroke-dasharray:none">
	<g
   id="g999"
   style="fill:#ffffff;fill-opacity:1;stroke:#ffffff;stroke-opacity:1;stroke-width:10;stroke-miterlimit:4;stroke-dasharray:none">
		<path
   d="M294.718,156.767c-1.382-1.401-3.233-2.244-5.198-2.367l0,0l-67.12-9.76l-29.68-60.8    c-1.971-3.954-6.774-5.562-10.729-3.591c-1.555,0.775-2.816,2.036-3.591,3.591l-30,60.88l-66.88,9.68    c-4.372,0.634-7.403,4.693-6.768,9.066c0.255,1.758,1.088,3.382,2.368,4.614l48.56,47.36l-12.16,66.88    c-0.724,4.359,2.222,8.479,6.58,9.203c1.716,0.285,3.478,0.003,5.02-0.803l60.4-31.52l60.08,31.6    c3.8,2.254,8.708,1.001,10.962-2.799c1.014-1.709,1.355-3.734,0.958-5.681l-11.44-66.88l48.56-47.36    C297.786,164.977,297.82,159.912,294.718,156.767z M231.2,206.88c-1.905,1.843-2.774,4.509-2.32,7.12l9.44,55.04l-49.44-26    c-2.329-1.223-5.111-1.223-7.44,0l-49.44,26l9.44-55.04c0.454-2.611-0.415-5.277-2.32-7.12l-40-38.96l55.28-8    c2.602-0.391,4.845-2.036,6-4.4l25.12-50l24.72,50.08c1.155,2.364,3.398,4.009,6,4.4l55.28,8L231.2,206.88z"
   id="path997"
   style="fill:#ffffff;fill-opacity:1;stroke:#ffffff;stroke-opacity:1;stroke-width:10;stroke-miterlimit:4;stroke-dasharray:none" />
	</g>
</g>
<g
   id="g1003">
</g>
<g
   id="g1005">
</g>
<g
   id="g1007">
</g>
<g
   id="g1009">
</g>
<g
   id="g1011">
</g>
<g
   id="g1013">
</g>
<g
   id="g1015">
</g>
<g
   id="g1017">
</g>
<g
   id="g1019">
</g>
<g
   id="g1021">
</g>
<g
   id="g1023">
</g>
<g
   id="g1025">
</g>
<g
   id="g1027">
</g>
<g
   id="g1029">
</g>
<g
   id="g1031">
</g>
</svg>