<?xml version="1.0" encoding="UTF-8" standalone="no"?>
<svg
   xmlns:dc="http://purl.org/dc/elements/1.1/"
   xmlns:cc="http://creativecommons.org/ns#"
   xmlns:rdf="http://www.w3.org/1999/02/22-rdf-syntax-ns#"
   xmlns:svg="http://www.w3.org/2000/svg"
   xmlns="http://www.w3.org/2000/svg"
   xmlns:sodipodi="http://sodipodi.sourceforge.net/DTD/sodipodi-0.dtd"
   xmlns:inkscape="http://www.inkscape.org/namespaces/inkscape"
   height="512pt"
   viewBox="0 0 512 512"
   width="512pt"
   version="1.1"
   id="svg5349"
   sodipodi:docname="linkedin-white.svg"
   inkscape:version="0.92.3 (2405546, 2018-03-11)">
  <metadata
     id="metadata5355">
    <rdf:RDF>
      <cc:Work
         rdf:about="">
        <dc:format>image/svg+xml</dc:format>
        <dc:type
           rdf:resource="http://purl.org/dc/dcmitype/StillImage" />
        <dc:title></dc:title>
      </cc:Work>
    </rdf:RDF>
  </metadata>
  <defs
     id="defs5353" />
  <sodipodi:namedview
     pagecolor="#ffffff"
     bordercolor="#666666"
     borderopacity="1"
     objecttolerance="10"
     gridtolerance="10"
     guidetolerance="10"
     inkscape:pageopacity="0"
     inkscape:pageshadow="2"
     inkscape:window-width="1920"
     inkscape:window-height="960"
     id="namedview5351"
     showgrid="false"
     inkscape:zoom="0.34570313"
     inkscape:cx="-127.27684"
     inkscape:cy="341.33333"
     inkscape:window-x="0"
     inkscape:window-y="27"
     inkscape:window-maximized="1"
     inkscape:current-layer="svg5349" />
  <path
     d="m382 492h-352c-5.515625 0-10-4.484375-10-10v-452c0-5.515625 4.484375-10 10-10h20c5.523438 0 10-4.476562 10-10s-4.476562-10-10-10h-20c-16.542969 0-30 13.457031-30 30v452c0 16.542969 13.457031 30 30 30h352c5.519531 0 10-4.476562 10-10s-4.476562-10-10-10zm0 0"
     id="path5335"
     style="fill:#ffffff;fill-opacity:1;stroke:none;stroke-opacity:1" />
  <path
     d="m482 0h-352c-5.523438 0-10 4.476562-10 10s4.476562 10 10 10h352c5.515625 0 10 4.484375 10 10v452c0 5.515625-4.484375 10-10 10h-20c-5.523438 0-10 4.476562-10 10s4.476562 10 10 10h20c16.542969 0 30-13.460938 30-30v-452c0-16.542969-13.457031-30-30-30zm0 0"
     id="path5337"
     style="fill:#ffffff;fill-opacity:1;stroke:none;stroke-opacity:1;stroke-width:4.52474987;stroke-miterlimit:4;stroke-dasharray:none" />
  <path
     d="m123.25 176.75c29.085938 0 52.75-23.664062 52.75-52.75 0-29.089844-23.664062-52.75-52.75-52.75-29.089844 0-52.75 23.664062-52.75 52.75s23.660156 52.75 52.75 52.75zm0-85.5c18.058594 0 32.75 14.691406 32.75 32.75s-14.691406 32.75-32.75 32.75-32.75-14.691406-32.75-32.75 14.691406-32.75 32.75-32.75zm0 0"
     id="path5339"
     style="fill:#ffffff;fill-opacity:1;stroke:none;stroke-opacity:1;stroke-width:4.52474987;stroke-miterlimit:4;stroke-dasharray:none" />
  <path
     d="m344.25 181.75c-22.101562 0-43.433594 7.6875-60.5 21.273438v-6.273438c0-5.523438-4.480469-10-10-10h-69.75c-5.523438 0-10 4.476562-10 10v234c0 5.523438 4.476562 10 10 10h73.5c5.519531 0 10-4.476562 10-10v-135.0625c0-16.679688 13.570312-30.25 30.25-30.25s30.25 13.570312 30.25 30.25v135.0625c0 5.523438 4.476562 10 10 10h73.5c5.519531 0 10-4.476562 10-10v-151.75c0-53.625-43.628906-97.25-97.25-97.25zm77.25 239h-53.5v-125.0625c0-27.707031-22.542969-50.25-50.25-50.25-27.710938 0-50.25 22.542969-50.25 50.25v125.0625h-53.5v-214h49.75v21.011719c0 4.328125 2.78125 8.164062 6.898438 9.507812 4.109374 1.339844 8.625-.117187 11.175781-3.613281 14.585937-19.976562 37.921875-31.90625 62.425781-31.90625 42.59375 0 77.25 34.652344 77.25 77.25zm0 0"
     id="path5341"
     style="fill:#ffffff;fill-opacity:1;stroke:none;stroke-opacity:1;stroke-width:4.52474987;stroke-miterlimit:4;stroke-dasharray:none" />
  <path
     d="m86.5 186.75c-5.523438 0-10 4.476562-10 10v234c0 5.523438 4.476562 10 10 10h73.5c5.519531 0 10-4.476562 10-10v-234c0-5.523438-4.480469-10-10-10zm63.5 234h-53.5v-214h53.5zm0 0"
     id="path5343"
     style="fill:#ffffff;fill-opacity:1;stroke:none;stroke-opacity:1;stroke-width:4.52474987;stroke-miterlimit:4;stroke-dasharray:none" />
  <path
     d="m90.003906 20c5.519532 0 10-4.476562 10-10s-4.480468-10-10-10h-.007812c-5.523438 0-9.996094 4.476562-9.996094 10s4.480469 10 10.003906 10zm0 0"
     id="path5345"
     style="fill:#ffffff;fill-opacity:1;stroke:none;stroke-opacity:1;stroke-width:4.52474987;stroke-miterlimit:4;stroke-dasharray:none" />
  <path
     d="m422.003906 492h-.007812c-5.523438 0-9.996094 4.476562-9.996094 10s4.480469 10 10.003906 10c5.523438 0 10-4.476562 10-10s-4.476562-10-10-10zm0 0"
     id="path5347"
     style="fill:#ffffff;fill-opacity:1;stroke:none;stroke-opacity:1;stroke-width:4.52474987;stroke-miterlimit:4;stroke-dasharray:none" />
</svg>
