<svg height="512" viewBox="0 0 512 512" width="512" xmlns="http://www.w3.org/2000/svg"><g><g><path d="m16 360h480a0 0 0 0 1 0 0v40a24 24 0 0 1 -24 24h-432a24 24 0 0 1 -24-24v-40a0 0 0 0 1 0 0z" fill="#e0e0e2"/><path d="m88 88h336a24 24 0 0 1 24 24v248a0 0 0 0 1 0 0h-384a0 0 0 0 1 0 0v-248a24 24 0 0 1 24-24z" fill="#57565c"/><path d="m88 112h336v224h-336z" fill="#83d8f4"/><path d="m295 384h-79l-8-24h96z" fill="#2d2d30"/><circle cx="200" cy="160" fill="#ffda44" r="24"/><circle cx="376" cy="185" fill="#ffda44" r="24"/><circle cx="296" cy="288" fill="#ffda44" r="24"/><g fill="#e0e0e2"><path d="m281.6 268.8-67.2-89.6"/><path d="m361.28 203.95-50.56 65.1"/><path d="m352.24 181.63-128.48-18.26"/></g></g><g><path d="m496 352h-40v-240a32.036 32.036 0 0 0 -32-32h-336a32.036 32.036 0 0 0 -32 32v240h-40a8 8 0 0 0 -8 8v40a32.036 32.036 0 0 0 32 32h432a32.036 32.036 0 0 0 32-32v-40a8 8 0 0 0 -8-8zm-424-240a16.021 16.021 0 0 1 16-16h336a16.021 16.021 0 0 1 16 16v240h-368zm220.46 256-3 8h-67.69l-2.67-8zm195.54 32a16.021 16.021 0 0 1 -16 16h-432a16.021 16.021 0 0 1 -16-16v-32h178.23l6.18 18.53a8 8 0 0 0 7.59 5.47h79a8.005 8.005 0 0 0 7.49-5.19l7.05-18.81h178.46z"/><path d="m424 104h-336a8 8 0 0 0 -8 8v224a8 8 0 0 0 8 8h336a8 8 0 0 0 8-8v-224a8 8 0 0 0 -8-8zm-8 224h-320v-208h320z"/><path d="m112 384h-64a8 8 0 0 0 0 16h64a8 8 0 0 0 0-16z"/><path d="m144 384h-8a8 8 0 0 0 0 16h8a8 8 0 0 0 0-16z"/><path d="m200 192a31.823 31.823 0 0 0 12.187-2.417l58.835 78.448a32 32 0 1 0 50.289.424l42-54.083a32 32 0 1 0 -16.864-41.645l-114.647-16.295a32 32 0 1 0 -31.8 35.568zm150.689 12.545-42 54.083a31.931 31.931 0 0 0 -24.872-.211l-58.835-78.448a32.049 32.049 0 0 0 4.571-7.7l114.655 16.3a31.829 31.829 0 0 0 6.481 15.976zm-54.689 99.455a16 16 0 1 1 16-16 16.019 16.019 0 0 1 -16 16zm80-135a16 16 0 1 1 -16 16 16.019 16.019 0 0 1 16-16zm-176-25a16 16 0 1 1 -16 16 16.019 16.019 0 0 1 16-16z"/><path d="m120 240h88a8 8 0 0 0 0-16h-88a8 8 0 0 0 0 16z"/><path d="m120 264h88a8 8 0 0 0 0-16h-88a8 8 0 0 0 0 16z"/><path d="m120 288h40a8 8 0 0 0 0-16h-40a8 8 0 0 0 0 16z"/><path d="m192 272h-8a8 8 0 0 0 0 16h8a8 8 0 0 0 0-16z"/></g></g></svg>