<svg height="512pt" viewBox="0 0 512 512" width="512pt" xmlns="http://www.w3.org/2000/svg"><path d="m305.082031 289.148438c3.351563-17.269532-.511719-32.957032-10.59375-43.042969-9.101562-9.097657-22.582031-13.144531-37.964843-11.382813-.675782.074219-1.351563.183594-2.027344.28125l15.59375 15.855469c7.738281 7.875 7.632812 20.53125-.238282 28.269531-3.894531 3.828125-8.957031 5.738282-14.015624 5.738282-5.171876 0-10.339844-1.996094-14.253907-5.976563l-25.773437-26.210937c-2.480469 2.019531-4.890625 4.175781-7.207032 6.488281-2.296874 2.296875-4.4375 4.691406-6.441406 7.152343l25.710938 25.28125c7.871094 7.742188 7.976562 20.398438.238281 28.269532-3.914063 3.980468-9.082031 5.976562-14.257813 5.976562-5.058593 0-10.121093-1.910156-14.011718-5.738281l-15.390625-15.132813c-.105469.703126-.214844 1.410157-.296875 2.113282-1.757813 15.378906 2.285156 28.863281 11.386718 37.964844 9.90625 9.90625 25.300782 13.824218 42.242188 10.75 10.855469-1.976563 21.269531 5.230468 23.242188 16.09375 1.972656 10.863281-5.234376 21.269531-16.097657 23.242187-6.207031 1.125-12.34375 1.679687-18.335937 1.679687-23.015625.003907-43.996094-8.167968-59.324219-23.496093-17.898437-17.898438-26.007813-43.039063-22.832031-70.78125 1.140625-9.984375 3.726562-19.882813 7.613281-29.429688l-12.179687-11.976562c-7.871094-7.742188-7.976563-20.398438-.238282-28.269531 7.742188-7.871094 20.398438-7.976563 28.269532-.238282l5.660156 5.566406c2.15625-2.5 4.410156-4.9375 6.773437-7.296874 2.378907-2.378907 4.832031-4.652344 7.351563-6.820313l-5.074219-5.160156c-7.742187-7.871094-7.636719-20.527344.238281-28.269531 7.871094-7.738282 20.527344-7.636719 28.269532.238281l11.5 11.695312c9.527343-3.871093 19.398437-6.445312 29.359374-7.585937 27.746094-3.167969 52.878907 4.9375 70.78125 22.835937 19.632813 19.636719 27.496094 48.402344 21.574219 78.933594-2.101562 10.835937-12.582031 17.925781-23.433593 15.816406-10.835938-2.101562-17.917969-12.59375-15.816407-23.433593zm206.632813-241.292969v.796875c.015625 27.960937-8.75 52.386718-26.058594 72.582031-9.058594 10.570313-20.394531 19.84375-33.839844 27.714844l10.613282 104.1875c2.445312 24.027343-5.949219 47.597656-23.039063 64.671875-.03125.03125-.0625.0625-.097656.09375l-97.578125 96.148437c-7.863282 7.75-20.523438 7.65625-28.269532-.207031-7.75-7.863281-7.65625-20.523438.207032-28.269531l97.519531-96.089844c8.515625-8.53125 12.703125-20.300781 11.476563-32.296875l-9.304688-91.378906c-29.84375 9.550781-55.429688 11.011718-56.710938 11.082031-.355468.019531-.710937.027344-1.066406.027344-10.558594 0-19.382812-8.273438-19.945312-18.941407-.578125-11.015624 7.875-20.417968 18.886718-21.011718.621094-.035156 26.976563-1.6875 54.671876-12.007813l-1.980469-19.441406-152.101563-15.457031c-12.019531-1.214844-23.804687 2.980468-32.339844 11.527344l-171.167968 170.605468c-15.523438 15.546875-15.515625 40.894532.046875 56.46875l131.285156 131.394532c15.734375 15.75 41.097656 16.011718 56.539063.582031 7.8125-7.804688 20.472656-7.800781 28.273437.011719 7.804687 7.808593 7.796875 20.46875-.015625 28.269531-15.40625 15.394531-35.675781 23.082031-56.003906 23.082031-20.621094.003906-41.308594-7.902344-57.078125-23.683594l-131.285157-131.394531c-31.125-31.152344-31.136718-81.847656-.023437-113.011719l171.171875-170.605468c17.03125-17.0625 40.597656-25.46875 64.640625-23.023438l99.207031 10.082031c27.472656-53.3125 100.582032-60.023437 103.855469-60.2929685.550781-.046875 1.101563-.0703125 1.65625-.0703125 26.386719 0 47.855469 21.46875 47.855469 47.855469zm-39.980469 0c0-4.097657-3.148437-7.476563-7.152344-7.839844-6.039062.707031-39.847656 5.484375-60.308593 25.015625l23.1875 2.355469c9.4375.960937 16.902343 8.421875 17.863281 17.863281l1.859375 18.222656c16.472656-14.335937 24.5625-32.464844 24.550781-54.808594zm0 0"/></svg>